# xmcd
#
# Track frame offsets: 
#        150
#        14795
#        36252
#        50606
#        61293
#        75364
#        91574
#        120679
#        139069
#        156734
#        178918
#        193280
#        212083
#        226170
#        238553
#        249304
#        266391
#        282413
#        293426
#        304266
#
# Disc length: 4277 seconds
#
# Revision: 13
# Processed by: cddbd v1.5.2PL0 Copyright (c) Steve Scherf et al.
# Submitted via: ExactAudioCopy v1.3
#
DISCID=1f10b314
DTITLE=Charles Aznavour - 40 chansons d'or [disk 1]
DYEAR=2001
DGENRE=Pop
TTITLE0=Au creux de mon épaule
TTITLE1=Sa jeunesse
TTITLE2=Toi et moi
TTITLE3=Le palais de nos chimères
TTITLE4=Mes emmerdes
TTITLE5=A ma fille
TTITLE6=Non je n'ai rien oublié
TTITLE7=La bohème
TTITLE8=Les deux guitares
TTITLE9=Comme ils disent
TTITLE10=Désormais
TTITLE11=Bon anniversaire
TTITLE12=Il te suffisait que je t'aime
TTITLE13=Pour faire une jam
TTITLE14=Les comédiens
TTITLE15=La mamma
TTITLE16=Emmenez-moi
TTITLE17=Trousse chemise
TTITLE18=Donne tes seize ans
TTITLE19=Tu t'laisses aller
EXTD=YEAR: 2001 ID3G: 13
EXTT0=
EXTT1=
EXTT2=
EXTT3=
EXTT4=
EXTT5=
EXTT6=
EXTT7=
EXTT8=
EXTT9=
EXTT10=
EXTT11=
EXTT12=
EXTT13=
EXTT14=
EXTT15=
EXTT16=
EXTT17=
EXTT18=
EXTT19=
PLAYORDER=
